<?xml version="1.0" encoding="utf-8"?>
<svg viewBox="0 0 739.90059 744.62525" xmlns="http://www.w3.org/2000/svg" xmlns:bx="https://boxy-svg.com">
  <circle style="fill: rgb(145, 201, 113);" cx="367.665" cy="371.586" r="141.192" transform="matrix(1.142818, 0, 0, 1.119524, -47.275509, -48.083221)">
    <title>center_ring</title>
  </circle>
  <path d="M 197.682 175.15 m -266.862 0 a 266.862 269.392 0 1 0 533.724 0 a 266.862 269.392 0 1 0 -533.724 0 Z M 197.682 175.15 m -187.6 0 a 187.6 186.022 0 0 1 375.2 0 a 187.6 186.022 0 0 1 -375.2 0 Z" style="paint-order: stroke; stroke-miterlimit: 11; fill: rgb(97, 161, 179);" transform="matrix(-0.745446, 0.666567, -0.666567, -0.745445, 634.987943, 369.451821)" bx:shape="ring 197.682 175.15 187.6 186.022 266.862 269.392 1@17938533">
    <title>inner_ring</title>
  </path>
  <path d="M 334.53 0 L 406.484 0 C 407.151 0.224 407.831 0.404 408.522 0.539 C 413.274 1.167 418.039 1.706 422.785 2.374 C 445.744 5.608 468.341 11.032 490.267 18.57 C 622.384 64.052 717.817 179.806 737.271 318.171 C 738.71 328.463 739.958 338.78 739.899 349.214 C 739.823 362.569 739.893 375.925 739.871 389.28 C 739.866 392.398 739.896 395.528 739.647 398.631 C 738.028 419.688 734.537 440.557 729.214 460.994 C 705.306 551.692 654.35 623.388 577.09 676.291 C 538.829 702.49 496.765 720.298 451.552 730.58 C 439.325 733.36 426.999 735.671 414.541 737.219 C 403.588 738.58 392.594 739.394 381.564 739.731 C 368.458 740.151 355.338 739.866 342.262 738.875 C 331.426 738.039 320.68 736.54 309.951 734.72 C 273.283 728.502 238.192 717.437 205.003 700.662 C 131.745 663.635 76.652 608.27 39.528 535.127 C 17.706 492.147 4.641 445.26 1.092 397.188 C -0.571 375.649 -0.334 354.005 1.803 332.508 C 3.658 313.644 6.99 294.955 11.769 276.613 C 29.191 209.88 62.233 152.068 111.812 104.134 C 172.706 45.26 245.314 10.847 329.635 0.893 C 331.279 0.697 332.899 0.302 334.53 0 Z M 663.025 369.247 C 662.657 211.341 536.788 78.098 372.813 76.565 C 215.323 75.093 79.563 200.654 77.929 366.605 C 76.374 524.621 202.475 660.923 369.447 661.589 C 531.499 662.236 663.024 530.733 663.025 369.247 Z" style="">
    <title>outter_ring</title>
  </path>
  <path fill="#fff" d="M 98.727 531.676 L 55.936 565.953 L 51.255 569.703 C 114.11 667.586 239.347 732.641 336.747 744.446 C 338.138 744.519 339.526 744.567 340.916 744.625 L 351.43 668.265 L 377.268 480.602 L 416.482 499.339 L 362.86 359.036 L 362.443 357.945 L 204.781 399.615 L 241.81 417.058 L 99.574 530.997" style="">
    <title>arrow</title>
  </path>
</svg>