<svg version="1" xmlns="http://www.w3.org/2000/svg" width="346.667" height="346.667" viewBox="0 0 260.000000 260.000000"><path d="M117 6.5c-.8.2-4.9.9-9 1.5-36 5.9-69.8 31.1-86.5 64.7-6.3 12.6-9.3 22.7-11.8 39.1-2 14-2 14.6-.4 26.7 1 6.8 2.9 16.3 4.3 21.2 3.2 11 11.3 28.6 12.9 27.9.7-.2 5.5-3.5 10.8-7.3l9.5-6.8L44 168c-6.7-13.3-10.8-33.8-9.5-47.9 1.4-16.5 7.9-35 16.5-47.6C63 55 82.8 41.1 104.6 34.8c6.9-2 10-2.3 24.9-2.2 15.5 0 17.8.3 25.8 2.7 20.1 6.2 37.1 17.9 49.4 34.1 6.3 8.3 13.8 24.2 16.4 35.1 3.2 12.6 3.2 31.3.1 44-2.9 11.7-10.6 27.4-18.1 36.8-6.1 7.7-17.5 18.1-19.3 17.5-.5-.2-1.6-1.5-2.5-2.8-1.4-2.4-1.3-2.7 7.9-12 12.4-12.7 19.8-25.7 23.9-42 2.1-8.2 1.8-32.7-.5-41-9.2-33.5-36.7-58.7-69.9-64-9.4-1.6-27.7-.8-36.2 1.5-9.4 2.5-25.3 10.8-32.8 17-13.4 11.1-23.9 27.4-28.9 45-3 10.7-3.2 32.4-.4 43 2.2 8.3 7.5 20.5 8.8 20.5.8 0 15.9-10.3 19-12.9.4-.4-.5-4-2-8.1-2.3-6.6-2.7-8.9-2.7-20 0-13.9 1.1-18.3 7.3-30.3 7-13.6 23.1-26.1 38.8-30.2 7.5-1.9 22.3-1.9 29.9 0 19.7 5 36.3 20.2 43.2 39.5 3.5 9.8 4.3 25.3 1.8 35-2.7 10.6-8.2 20.6-15.5 28.2-3.6 3.7-7.1 6.8-7.8 6.8-.7 0-2.5-1.8-4-4-1.5-2.3-9-12.5-16.8-22.8-7.7-10.3-14.6-19.7-15.3-21-.7-1.3-2-2.1-3.4-2.1-2.2.2-2.2.2 0 .6 1.7.3 2.5 1.9 4.3 8.6 1.2 4.5 4.1 15.3 6.4 23.9 2.4 8.7 3.9 15.8 3.4 15.8s-3-1.4-5.4-3.1c-2.5-1.7-4.8-2.9-5-2.6-.6.6-4.1 15.3-8.4 35.7-1.5 7.4-3.9 18.7-5.3 25-1.4 6.3-2.8 13.3-3.1 15.4-.4 2.1-.9 4.9-1.2 6.2-.5 2.1-.2 2.3 5.2 3 9.9 1.2 27.1-.3 40-3.6 34.3-8.6 63.8-32.8 78.9-64.6 7.2-15 14.5-45.4 14.5-59.9 0-8.2-3.4-27.3-6.5-37-13.3-41-47.6-71.7-90.7-81.1-6.6-1.4-32.1-2.8-35.8-1.9z"/><path d="M119.8 127.7c.6.2 1.8.2 2.5 0 .6-.3.1-.5-1.3-.5-1.4 0-1.9.2-1.2.5zM110.5 129c-2.7.7-2.7.8-.5.8 1.4 0 3.9-.4 5.5-.8 2.7-.7 2.7-.8.5-.8-1.4 0-3.8.4-5.5.8zM99.5 131c-2.7.7-2.7.8-.5.8 1.4 0 3.9-.4 5.5-.8 2.7-.7 2.7-.8.5-.8-1.4 0-3.8.4-5.5.8zM92.8 132.7c.6.2 1.8.2 2.5 0 .6-.3.1-.5-1.3-.5-1.4 0-1.9.2-1.2.5zM83.5 134c-2.7.7-2.7.8-.5.8 1.4 0 3.9-.4 5.5-.8 2.7-.7 2.7-.8.5-.8-1.4 0-3.8.4-5.5.8zM78 137.2c0 1.6 3.2 10.8 3.8 10.8.4 0 2-1 3.6-2.3l2.8-2.3-2.6-1.7c-1.4-.9-3.7-2.4-5.1-3.3-1.4-.9-2.5-1.4-2.5-1.2z"/></svg>